<svg id="Layer_1" data-name="Layer 1" xmlns="http://www.w3.org/2000/svg" width="165.88" height="165.86" viewBox="0 0 165.88 165.86">
  <defs>
    <style>
      .cls-1 {
        fill: #ed1c24;
      }

      .cls-2 {
        fill: #414042;
      }
    </style>
  </defs>
  <g>
    <g>
      <path class="cls-1" d="M329.89,310.87c4,2.23,7.93,4.32,11.77,6.53,5.71,3.29,11.43,6.57,17,10.07a3.93,3.93,0,0,1,1.43,3.42c-1.52,4.31-3.44,8.48-5.23,12.74-5.28-1.42-10.32-2.67-15.3-4.16a4.23,4.23,0,0,0-4.93,1.22c-6.23,6.42-12.72,12.59-18.9,19.06a6.25,6.25,0,0,0-1.35,4.81c.84,4.38,2.17,8.67,3.44,13,.57,2,.07,2.94-1.87,3.66-3.38,1.24-6.61,2.92-10,4a3.83,3.83,0,0,1-3.44-1.14c-2.32-3.52-4.38-7.23-6.35-11a5.66,5.66,0,0,0-5.89-3.45c-6.41.24-12.83.07-20,.07,2.86-4.91,5.4-9.37,8.09-13.74a3,3,0,0,1,2.25-.87c22.85-.54,44.55-18.84,48.54-42.61A8.45,8.45,0,0,1,329.89,310.87Z" transform="translate(-194.61 -219.85)"/>
      <path class="cls-1" d="M285.59,251.16c2.63-4.76,5-9.23,7.56-13.63,3-5.17,6.14-10.24,9.06-15.44,1-1.78,2-2.21,3.88-1.36,3.27,1.5,6.54,3.05,9.93,4.23,2.15.75,2.25,1.94,1.75,3.71-1.14,4.06-2.2,8.14-3.4,12.18a5.25,5.25,0,0,0,1.58,6c6.37,6.1,12.47,12.49,18.87,18.56a5.88,5.88,0,0,0,4.57,1.14c4.49-.9,8.86-2.38,13.34-3.35a3.51,3.51,0,0,1,3,1.34c1.63,3.34,2.82,6.89,4.31,10.3.83,1.87.37,2.93-1.4,3.9-3.92,2.15-7.86,4.31-11.57,6.81a5.83,5.83,0,0,0-2.29,4c-.24,6.7-.11,13.41-.11,21.17-3.54-2-6.32-4-9.41-5.28-4.15-1.68-5.43-4.4-5.8-8.79-1.75-20.84-18.89-39.81-39.61-44.41C288.58,251.92,287.28,251.57,285.59,251.16Z" transform="translate(-194.61 -219.85)"/>
      <path class="cls-1" d="M252,219.85c2.5,4.31,5,8.29,7.16,12.47,1.53,3,3.46,4.26,6.95,4,5.34-.34,10.71-.1,16.06-.08.83,0,1.65.14,3.15.28-2.72,4.65-5.07,9-7.76,13.06-.56.86-2.32,1.18-3.58,1.3-18.14,1.69-32.07,10.29-41.24,25.93-3.2,5.46-4.92,11.79-7.51,18.22l-30.6-17.73c1.76-4.56,3.35-9,5.23-13.23.29-.66,2.07-1.17,3-1,4.47,1,8.84,2.47,13.32,3.37a5.88,5.88,0,0,0,4.55-1.1c6.5-6.17,12.72-12.64,19.16-18.87,1.62-1.58,2.16-3,1.43-5.19-1.31-4-2.21-8.15-3.42-12.2-.7-2.34-.18-3.64,2.27-4.5C244.13,223.25,248,221.51,252,219.85Z" transform="translate(-194.61 -219.85)"/>
      <path class="cls-1" d="M194.61,328.74c4.59-2.64,8.95-5.26,13.42-7.66a4.53,4.53,0,0,0,2.78-4.65c-.17-6.68-.06-13.37-.06-21.1,5.23,3,9.71,5.53,14.07,8.24.64.39.93,1.74,1,2.66.55,21.38,16.84,43.62,44,48.56a23.71,23.71,0,0,1-1.09,2.59c-5.06,8.85-10.19,17.65-15.19,26.53-1,1.74-1.87,2.27-3.8,1.36a102.36,102.36,0,0,0-9.66-3.94c-2.24-.79-2.8-2-2.14-4.24,1.27-4.29,2.46-8.61,3.41-13a4.8,4.8,0,0,0-.82-3.8q-9.72-10.06-19.81-19.77a5.25,5.25,0,0,0-4.16-1.06c-4.6,1-9.09,2.48-13.67,3.56-.87.2-2.59-.37-2.88-1C198,337.73,196.41,333.31,194.61,328.74Z" transform="translate(-194.61 -219.85)"/>
    </g>
    <path class="cls-2" d="M259.55,320.46l7.06-8.49c3.31,2.66,7.49,4.53,10.94,4.53,3.75,0,5.33-1.22,5.33-3.31s-2.38-2.95-6.34-4.54l-5.83-2.44c-5-2-9.43-6.27-9.43-13,0-8,7.2-14.54,17.43-14.54a22.49,22.49,0,0,1,15.55,6.26l-6.19,7.78c-3.17-2.23-5.91-3.39-9.36-3.39-3,0-4.9,1.08-4.9,3.17s2.66,3,6.91,4.68l5.69,2.23c5.83,2.31,9.14,6.34,9.14,12.82,0,7.92-6.62,15-18.29,15A27.09,27.09,0,0,1,259.55,320.46Z" transform="translate(-194.61 -219.85)"/>
  </g>
</svg>
