<?xml version="1.0" standalone="no"?>
<!DOCTYPE svg PUBLIC "-//W3C//DTD SVG 20010904//EN"
 "http://www.w3.org/TR/2001/REC-SVG-20010904/DTD/svg10.dtd">
<svg version="1.0" xmlns="http://www.w3.org/2000/svg"
 width="945.000000pt" height="945.000000pt" viewBox="0 0 945.000000 945.000000"
 preserveAspectRatio="xMidYMid meet">
<metadata>
Created by potrace 1.14, written by Peter Selinger 2001-2017
</metadata>
<g transform="translate(0.000000,945.000000) scale(0.100000,-0.100000)"
fill="#000000" stroke="none">
<path d="M3055 9354 c-110 -47 -272 -113 -360 -146 -88 -34 -170 -69 -181 -77
-58 -43 -76 -115 -50 -206 8 -27 44 -160 80 -295 37 -135 81 -290 98 -345 38
-119 43 -210 14 -265 -10 -19 -208 -223 -440 -453 -789 -784 -747 -746 -846
-772 -64 -17 -130 -11 -277 25 -70 18 -139 34 -152 36 -14 3 -28 7 -33 10 -8
5 -22 9 -273 75 -261 68 -307 54 -374 -112 -75 -185 -251 -644 -251 -654 0 -8
399 -243 804 -474 22 -13 111 -64 196 -113 85 -50 173 -101 195 -113 22 -13
153 -88 290 -168 l250 -146 13 25 c12 22 124 323 159 424 9 25 20 56 26 70 6
14 11 27 11 30 7 30 94 233 144 334 199 405 492 762 872 1059 62 49 216 149
315 204 278 156 682 291 1010 338 22 3 51 7 65 10 14 2 52 6 85 10 122 13 141
16 191 30 28 8 62 25 75 37 14 13 63 86 111 164 89 146 349 593 345 595 -13 4
-57 9 -132 14 -124 9 -809 10 -925 2 -211 -15 -335 48 -420 210 -29 57 -147
271 -181 329 -131 225 -235 394 -244 393 -5 0 -100 -38 -210 -85z"/>
<path d="M6205 9402 c-41 -26 -54 -43 -115 -152 -29 -52 -123 -212 -208 -355
-85 -143 -176 -296 -202 -340 -67 -113 -201 -351 -310 -550 -52 -93 -115 -208
-141 -255 -52 -92 -52 -92 13 -105 168 -35 495 -130 603 -175 84 -36 106 -46
185 -84 129 -62 405 -226 430 -255 3 -3 41 -33 84 -65 98 -73 107 -80 237
-202 373 -350 666 -820 804 -1290 15 -49 28 -97 30 -107 2 -10 6 -26 9 -35 3
-9 7 -28 10 -42 3 -14 9 -47 15 -75 11 -56 18 -107 26 -180 3 -27 7 -72 10
-100 18 -165 68 -279 157 -359 32 -30 82 -64 111 -77 122 -56 254 -124 330
-170 45 -28 91 -56 102 -62 11 -7 31 -19 45 -28 14 -8 46 -28 72 -42 l47 -27
1 577 c1 318 3 594 4 613 11 125 59 193 201 288 101 67 538 322 553 322 15 0
92 57 111 82 29 36 33 89 11 145 -48 125 -192 476 -222 543 -40 85 -55 101
-117 126 -58 23 -100 16 -421 -72 -434 -117 -490 -125 -605 -86 -58 20 -89 48
-581 537 -183 182 -399 395 -479 475 -226 224 -234 250 -151 540 47 165 64
223 132 465 20 72 38 154 41 183 8 74 -22 111 -119 147 -113 43 -275 109 -358
148 -269 124 -295 131 -345 99z"/>
<path d="M4696 6093 c-1 -2 -26 -5 -54 -8 -226 -23 -449 -121 -598 -265 -202
-194 -283 -450 -228 -716 40 -199 153 -362 328 -478 99 -66 230 -126 609 -277
54 -22 121 -51 148 -65 48 -24 118 -87 120 -109 15 -122 -26 -183 -145 -219
-76 -23 -222 -18 -329 10 -139 37 -337 138 -423 216 -20 18 -21 17 -175 -168
-85 -103 -175 -212 -201 -242 -25 -31 -44 -60 -42 -66 7 -16 149 -119 229
-165 152 -89 335 -155 530 -190 140 -26 401 -22 535 7 370 82 616 286 716 592
23 71 28 106 30 215 2 72 -1 150 -7 175 -6 25 -13 54 -15 66 -18 97 -91 222
-178 309 -118 118 -168 143 -726 360 -213 83 -278 124 -300 189 -17 52 2 117
45 155 81 70 275 86 445 35 67 -20 216 -92 263 -128 19 -14 40 -26 48 -25 13
0 339 404 348 430 5 16 -63 77 -154 138 -177 120 -370 192 -580 217 -60 7
-234 12 -239 7z"/>
<path d="M922 4503 c1 -643 1 -648 -20 -690 -31 -61 -57 -85 -147 -136 -153
-87 -551 -315 -651 -373 l-100 -59 52 -135 c28 -74 57 -146 62 -160 6 -14 20
-50 32 -80 11 -30 24 -64 29 -75 5 -11 37 -89 72 -173 63 -149 65 -153 107
-172 23 -11 59 -21 80 -21 40 -2 41 -1 437 106 427 115 429 115 534 80 44 -14
78 -43 242 -203 439 -428 969 -966 986 -1002 31 -64 36 -153 13 -225 -5 -16
-12 -43 -15 -60 -3 -16 -23 -100 -45 -185 -22 -85 -42 -162 -44 -171 -3 -9
-22 -79 -44 -156 -52 -181 -56 -202 -43 -251 16 -59 52 -82 236 -151 88 -33
223 -88 300 -122 222 -97 217 -96 267 -79 53 18 53 19 310 470 105 184 199
350 209 368 11 17 28 49 40 69 37 65 286 496 328 568 57 98 120 228 123 256 3
19 -3 24 -37 31 -444 97 -796 240 -1132 461 -314 206 -610 493 -815 792 -221
320 -399 731 -454 1045 -2 14 -9 45 -14 70 -5 25 -12 69 -16 99 -3 30 -7 63
-10 74 -2 12 -6 66 -9 121 -8 144 -13 178 -34 212 -20 33 -148 112 -586 364
-126 73 -233 134 -237 136 -3 2 -6 -287 -6 -643z"/>
<path d="M7681 4221 c-11 -21 -23 -53 -26 -70 -11 -65 -36 -177 -51 -230 -20
-71 -63 -210 -74 -236 -4 -11 -20 -51 -35 -90 -41 -102 -154 -327 -215 -425
-307 -499 -769 -913 -1288 -1156 -135 -64 -139 -65 -212 -92 -30 -11 -73 -27
-95 -35 -46 -17 -247 -73 -291 -81 -16 -3 -42 -8 -59 -11 -16 -3 -37 -8 -45
-10 -8 -2 -37 -7 -65 -11 -27 -3 -58 -8 -68 -10 -18 -3 -109 -11 -229 -19 -37
-2 -80 -8 -95 -11 -29 -7 -72 -34 -73 -45 0 -3 -36 -65 -80 -138 -44 -72 -80
-134 -80 -138 0 -3 -6 -14 -14 -22 -7 -9 -25 -36 -38 -61 -14 -25 -41 -72 -60
-105 -86 -149 -99 -171 -108 -185 -38 -61 -71 -123 -67 -126 5 -5 1028 -5
1132 0 103 4 189 -23 251 -80 39 -36 59 -66 119 -179 82 -154 216 -386 282
-488 68 -106 101 -130 188 -140 43 -5 193 46 375 128 100 44 119 52 225 94 88
35 103 45 128 81 27 38 21 84 -34 271 -47 162 -104 368 -114 414 -3 11 -14 62
-26 114 -27 119 -22 198 16 279 24 48 111 140 564 596 652 655 598 602 646
626 54 26 131 21 260 -17 140 -42 247 -73 270 -77 11 -3 54 -14 95 -25 41 -11
136 -36 210 -56 74 -20 144 -38 155 -41 74 -21 67 -27 125 108 29 67 63 147
76 176 13 29 24 55 24 57 0 3 9 24 20 48 61 132 122 306 123 347 0 48 -30 125
-60 152 -37 32 -693 424 -968 578 -22 12 -69 39 -105 60 -70 40 -86 49 -320
178 -223 122 -260 142 -265 142 -3 0 -14 -18 -24 -39z"/>
</g>
</svg>
