<?xml version="1.0" standalone="no"?>
<!DOCTYPE svg PUBLIC "-//W3C//DTD SVG 20010904//EN"
 "http://www.w3.org/TR/2001/REC-SVG-20010904/DTD/svg10.dtd">
<svg version="1.0" xmlns="http://www.w3.org/2000/svg"
 width="1500.000000pt" height="1500.000000pt" viewBox="0 0 1500.000000 1500.000000"
 preserveAspectRatio="xMidYMid meet">

<g transform="translate(0.000000,1500.000000) scale(0.100000,-0.100000)"
fill="#000000" stroke="none">
<path d="M10995 11692 c-44 -27 -105 -62 -135 -79 -30 -17 -140 -80 -243 -139
-104 -60 -207 -120 -230 -133 -23 -13 -80 -46 -127 -74 -47 -28 -114 -67 -150
-87 -36 -20 -195 -112 -355 -205 -254 -147 -405 -234 -510 -295 -16 -9 -75
-43 -130 -75 -55 -32 -156 -91 -225 -130 -121 -70 -215 -124 -417 -242 -54
-31 -172 -99 -263 -151 -91 -52 -235 -135 -320 -185 -85 -49 -169 -98 -187
-108 -17 -10 -50 -30 -73 -44 -52 -33 -131 -67 -138 -60 -3 3 -1 5 3 5 5 0
-20 15 -55 34 -36 18 -99 53 -140 77 -41 24 -87 51 -102 58 -16 8 -28 18 -28
23 0 5 -4 7 -9 4 -4 -3 -39 14 -77 39 -38 25 -72 45 -76 45 -3 0 -79 43 -169
95 -89 52 -164 95 -166 95 -4 0 -165 95 -258 152 -27 17 -99 58 -160 91 -60
33 -124 71 -142 83 -17 13 -35 24 -38 24 -11 0 -149 84 -157 95 -4 5 -8 7 -8
3 0 -3 -39 16 -87 44 -49 28 -144 82 -213 121 -69 38 -137 78 -152 88 -14 11
-31 19 -36 19 -6 0 -12 4 -14 8 -1 4 -70 46 -151 92 -82 47 -168 96 -192 110
-24 14 -90 51 -147 84 -57 32 -106 63 -109 68 -3 5 -9 9 -13 8 -8 -2 -129 65
-171 94 -16 12 -32 21 -35 21 -7 1 -145 81 -191 112 -19 12 -38 23 -42 23 -3
0 -41 21 -84 47 -43 25 -107 62 -143 80 -36 19 -69 38 -75 43 -5 4 -27 17 -47
29 l-38 21 0 -2023 c0 -1605 3 -2026 12 -2036 10 -11 10 -13 1 -7 -8 4 -13 2
-13 -6 -1 -7 -65 -50 -143 -94 -78 -45 -518 -299 -977 -564 -1407 -813 -1604
-927 -1935 -1118 -487 -281 -489 -282 -473 -297 12 -12 123 -77 463 -273 72
-41 150 -86 175 -100 25 -14 113 -64 195 -112 83 -48 242 -140 355 -205 113
-65 322 -186 465 -268 143 -83 301 -174 350 -202 114 -65 356 -206 690 -398
143 -83 304 -175 358 -206 53 -31 177 -102 275 -158 103 -60 189 -103 205
-103 14 0 67 25 118 55 50 30 93 55 94 55 1 0 54 30 116 66 63 37 130 76 149
86 19 11 94 54 165 96 153 89 307 178 500 289 77 44 223 129 325 188 102 59
199 116 216 125 93 53 300 174 309 180 6 4 30 19 55 32 127 71 413 235 467
269 34 22 64 39 66 39 2 0 98 55 213 121 115 67 299 173 409 236 110 64 225
130 255 149 55 32 161 82 148 68 -7 -6 59 -51 148 -99 22 -13 59 -34 82 -49
23 -14 47 -27 54 -28 7 -2 15 -5 18 -9 8 -9 110 -68 211 -123 31 -17 113 -65
182 -106 148 -88 187 -110 190 -107 1 1 16 -8 34 -21 17 -12 34 -22 37 -22 5
0 68 -40 91 -57 6 -5 26 -16 45 -25 19 -10 55 -29 80 -44 85 -50 245 -142 295
-169 28 -15 55 -31 60 -35 6 -5 37 -23 70 -41 33 -18 78 -44 100 -58 22 -14
58 -35 80 -46 22 -11 52 -28 68 -37 64 -41 82 -53 87 -53 5 -1 30 -15 72 -40
170 -101 272 -160 318 -183 19 -9 37 -20 40 -23 3 -3 25 -17 50 -31 324 -183
439 -250 461 -267 15 -12 35 -24 45 -27 11 -4 27 -14 37 -22 9 -8 17 -12 17
-9 0 4 30 -12 68 -35 37 -22 92 -55 122 -71 30 -17 69 -39 85 -48 17 -10 54
-30 83 -45 28 -15 52 -31 52 -36 0 -4 3 -7 8 -6 9 3 105 -52 114 -67 4 -5 8
910 8 2035 l0 2046 133 76 c149 85 1474 851 2017 1166 195 113 470 271 610
352 685 396 775 449 778 458 3 9 -39 36 -178 115 -25 14 -99 56 -165 94 -66
39 -196 114 -290 168 -93 54 -260 150 -370 213 -110 64 -299 173 -420 242
-121 70 -355 205 -520 300 -165 95 -313 181 -330 190 -74 42 -429 247 -510
295 -49 29 -137 79 -195 113 -58 33 -203 117 -323 186 -120 69 -226 126 -235
126 -9 0 -53 -22 -97 -48z m-4405 -2536 c0 -2 -7 -7 -16 -10 -8 -3 -12 -2 -9
4 6 10 25 14 25 6z m-40 -21 c0 -2 -10 -9 -22 -15 -22 -11 -22 -10 -4 4 21 17
26 19 26 11z m-125 -75 c-3 -5 -12 -10 -18 -10 -7 0 -6 4 3 10 19 12 23 12 15
0z m-615 -354 c0 -2 -7 -7 -16 -10 -8 -3 -12 -2 -9 4 6 10 25 14 25 6z m-760
-440 c0 -2 -7 -7 -16 -10 -8 -3 -12 -2 -9 4 6 10 25 14 25 6z m-285 -166 c-3
-5 -12 -10 -18 -10 -7 0 -6 4 3 10 19 12 23 12 15 0z m3055 -2355 c0 -2 -10
-9 -22 -15 -22 -11 -22 -10 -4 4 21 17 26 19 26 11z"/>
</g>
</svg>
